{
	"asset":{
		"generator":"Khronos glTF Blender I/O v4.0.34",
		"version":"2.0"
	},
	"extensionsUsed":[
		"KHR_materials_unlit"
	],
	"scene":0,
	"scenes":[
		{
			"name":"Scene",
			"nodes":[
				0,
				1,
				2,
				3,
				4,
				5,
				6,
				7
			]
		}
	],
	"nodes":[
		{
			"mesh":0,
			"name":"Circle",
			"scale":[
				1.8560526371002197,
				1.8560526371002197,
				1.8560526371002197
			],
			"translation":[
				0,
				-0.05931246280670166,
				0
			]
		},
		{
			"mesh":1,
			"name":"Cube",
			"translation":[
				0,
				2.1053130626678467,
				0
			]
		},
		{
			"mesh":2,
			"name":"Cube.001",
			"rotation":[
				-0.04886794835329056,
				0,
				0,
				0.9988052845001221
			],
			"scale":[
				1.1606643199920654,
				1.1606642007827759,
				0.7235695719718933
			],
			"translation":[
				-0.01389954425394535,
				2.353410243988037,
				-0.8085455298423767
			]
		},
		{
			"mesh":3,
			"name":"Cylinder",
			"rotation":[
				0.024560337886214256,
				0,
				0,
				0.9996983408927917
			],
			"scale":[
				0.05404706299304962,
				0.05404706299304962,
				0.05404706299304962
			],
			"translation":[
				0.6998566389083862,
				0.32608896493911743,
				-0.6018223166465759
			]
		},
		{
			"mesh":4,
			"name":"Cylinder.001",
			"rotation":[
				0.024560337886214256,
				0,
				0,
				0.9996983408927917
			],
			"scale":[
				0.05404706299304962,
				0.05404706299304962,
				0.05404706299304962
			],
			"translation":[
				-0.658819317817688,
				0.32608896493911743,
				-0.6018223166465759
			]
		},
		{
			"mesh":5,
			"name":"Cylinder.002",
			"rotation":[
				-0.046215642243623734,
				0,
				0,
				0.9989315867424011
			],
			"scale":[
				0.05404706299304962,
				0.05404707416892052,
				0.05404707416892052
			],
			"translation":[
				0.6998566389083862,
				0.32584071159362793,
				0.6774888038635254
			]
		},
		{
			"mesh":6,
			"name":"Cylinder.003",
			"rotation":[
				-0.046215642243623734,
				0,
				0,
				0.9989315867424011
			],
			"scale":[
				0.05404706299304962,
				0.05404707416892052,
				0.05404707416892052
			],
			"translation":[
				-0.658819317817688,
				0.32584071159362793,
				0.6774888038635254
			]
		},
		{
			"name":"Stroke"
		}
	],
	"materials":[
		{
			"doubleSided":true,
			"extensions":{
				"KHR_materials_unlit":{}
			},
			"name":"ground",
			"pbrMetallicRoughness":{
				"metallicFactor":0,
				"roughnessFactor":0.9
			}
		},
		{
			"doubleSided":true,
			"extensions":{
				"KHR_materials_unlit":{}
			},
			"name":"woodColor",
			"pbrMetallicRoughness":{
				"metallicFactor":0,
				"roughnessFactor":0.9
			}
		}
	],
	"meshes":[
		{
			"name":"Circle",
			"primitives":[
				{
					"attributes":{
						"POSITION":0,
						"NORMAL":1,
						"TEXCOORD_0":2
					},
					"indices":3,
					"material":0
				}
			]
		},
		{
			"name":"Cube",
			"primitives":[
				{
					"attributes":{
						"POSITION":4,
						"NORMAL":5,
						"TEXCOORD_0":6
					},
					"indices":7,
					"material":1
				}
			]
		},
		{
			"name":"Cube.002",
			"primitives":[
				{
					"attributes":{
						"POSITION":8,
						"NORMAL":9,
						"TEXCOORD_0":10
					},
					"indices":11,
					"material":1
				}
			]
		},
		{
			"name":"Cylinder",
			"primitives":[
				{
					"attributes":{
						"POSITION":12,
						"NORMAL":13,
						"TEXCOORD_0":14
					},
					"indices":15,
					"material":1
				}
			]
		},
		{
			"name":"Cylinder.001",
			"primitives":[
				{
					"attributes":{
						"POSITION":16,
						"NORMAL":17,
						"TEXCOORD_0":18
					},
					"indices":15,
					"material":1
				}
			]
		},
		{
			"name":"Cylinder.002",
			"primitives":[
				{
					"attributes":{
						"POSITION":19,
						"NORMAL":20,
						"TEXCOORD_0":21
					},
					"indices":15,
					"material":1
				}
			]
		},
		{
			"name":"Cylinder.003",
			"primitives":[
				{
					"attributes":{
						"POSITION":22,
						"NORMAL":23,
						"TEXCOORD_0":24
					},
					"indices":15,
					"material":1
				}
			]
		}
	],
	"accessors":[
		{
			"bufferView":0,
			"componentType":5126,
			"count":32,
			"max":[
				1,
				0,
				1
			],
			"min":[
				-1,
				0,
				-1
			],
			"type":"VEC3"
		},
		{
			"bufferView":1,
			"componentType":5126,
			"count":32,
			"type":"VEC3"
		},
		{
			"bufferView":2,
			"componentType":5126,
			"count":32,
			"type":"VEC2"
		},
		{
			"bufferView":3,
			"componentType":5123,
			"count":90,
			"type":"SCALAR"
		},
		{
			"bufferView":4,
			"componentType":5126,
			"count":144,
			"max":[
				0.97703617811203,
				-0.694685161113739,
				1
			],
			"min":[
				-0.97703617811203,
				-1,
				-0.9624062776565552
			],
			"type":"VEC3"
		},
		{
			"bufferView":5,
			"componentType":5126,
			"count":144,
			"type":"VEC3"
		},
		{
			"bufferView":6,
			"componentType":5126,
			"count":144,
			"type":"VEC2"
		},
		{
			"bufferView":7,
			"componentType":5123,
			"count":276,
			"type":"SCALAR"
		},
		{
			"bufferView":8,
			"componentType":5126,
			"count":184,
			"max":[
				0.6186758875846863,
				0.9958884119987488,
				0.1893559694290161
			],
			"min":[
				-0.6186758875846863,
				-0.7947567701339722,
				-0.1893559694290161
			],
			"type":"VEC3"
		},
		{
			"bufferView":9,
			"componentType":5126,
			"count":184,
			"type":"VEC3"
		},
		{
			"bufferView":10,
			"componentType":5126,
			"count":184,
			"type":"VEC2"
		},
		{
			"bufferView":11,
			"componentType":5123,
			"count":324,
			"type":"SCALAR"
		},
		{
			"bufferView":12,
			"componentType":5126,
			"count":544,
			"max":[
				2.2784810066223145,
				15.140779495239258,
				2.2784810066223145
			],
			"min":[
				-2.2784810066223145,
				-5.708017349243164,
				-2.2784810066223145
			],
			"type":"VEC3"
		},
		{
			"bufferView":13,
			"componentType":5126,
			"count":544,
			"type":"VEC3"
		},
		{
			"bufferView":14,
			"componentType":5126,
			"count":544,
			"type":"VEC2"
		},
		{
			"bufferView":15,
			"componentType":5123,
			"count":852,
			"type":"SCALAR"
		},
		{
			"bufferView":16,
			"componentType":5126,
			"count":544,
			"max":[
				2.2784810066223145,
				15.140779495239258,
				2.2784810066223145
			],
			"min":[
				-2.2784810066223145,
				-5.708017349243164,
				-2.2784810066223145
			],
			"type":"VEC3"
		},
		{
			"bufferView":17,
			"componentType":5126,
			"count":544,
			"type":"VEC3"
		},
		{
			"bufferView":18,
			"componentType":5126,
			"count":544,
			"type":"VEC2"
		},
		{
			"bufferView":19,
			"componentType":5126,
			"count":544,
			"max":[
				2.2784810066223145,
				15.140779495239258,
				2.2784810066223145
			],
			"min":[
				-2.2784810066223145,
				-5.708017349243164,
				-2.2784810066223145
			],
			"type":"VEC3"
		},
		{
			"bufferView":20,
			"componentType":5126,
			"count":544,
			"type":"VEC3"
		},
		{
			"bufferView":21,
			"componentType":5126,
			"count":544,
			"type":"VEC2"
		},
		{
			"bufferView":22,
			"componentType":5126,
			"count":544,
			"max":[
				2.2784810066223145,
				15.140779495239258,
				2.2784810066223145
			],
			"min":[
				-2.2784810066223145,
				-5.708017349243164,
				-2.2784810066223145
			],
			"type":"VEC3"
		},
		{
			"bufferView":23,
			"componentType":5126,
			"count":544,
			"type":"VEC3"
		},
		{
			"bufferView":24,
			"componentType":5126,
			"count":544,
			"type":"VEC2"
		}
	],
	"bufferViews":[
		{
			"buffer":0,
			"byteLength":384,
			"byteOffset":0,
			"target":34962
		},
		{
			"buffer":0,
			"byteLength":384,
			"byteOffset":384,
			"target":34962
		},
		{
			"buffer":0,
			"byteLength":256,
			"byteOffset":768,
			"target":34962
		},
		{
			"buffer":0,
			"byteLength":180,
			"byteOffset":1024,
			"target":34963
		},
		{
			"buffer":0,
			"byteLength":1728,
			"byteOffset":1204,
			"target":34962
		},
		{
			"buffer":0,
			"byteLength":1728,
			"byteOffset":2932,
			"target":34962
		},
		{
			"buffer":0,
			"byteLength":1152,
			"byteOffset":4660,
			"target":34962
		},
		{
			"buffer":0,
			"byteLength":552,
			"byteOffset":5812,
			"target":34963
		},
		{
			"buffer":0,
			"byteLength":2208,
			"byteOffset":6364,
			"target":34962
		},
		{
			"buffer":0,
			"byteLength":2208,
			"byteOffset":8572,
			"target":34962
		},
		{
			"buffer":0,
			"byteLength":1472,
			"byteOffset":10780,
			"target":34962
		},
		{
			"buffer":0,
			"byteLength":648,
			"byteOffset":12252,
			"target":34963
		},
		{
			"buffer":0,
			"byteLength":6528,
			"byteOffset":12900,
			"target":34962
		},
		{
			"buffer":0,
			"byteLength":6528,
			"byteOffset":19428,
			"target":34962
		},
		{
			"buffer":0,
			"byteLength":4352,
			"byteOffset":25956,
			"target":34962
		},
		{
			"buffer":0,
			"byteLength":1704,
			"byteOffset":30308,
			"target":34963
		},
		{
			"buffer":0,
			"byteLength":6528,
			"byteOffset":32012,
			"target":34962
		},
		{
			"buffer":0,
			"byteLength":6528,
			"byteOffset":38540,
			"target":34962
		},
		{
			"buffer":0,
			"byteLength":4352,
			"byteOffset":45068,
			"target":34962
		},
		{
			"buffer":0,
			"byteLength":6528,
			"byteOffset":49420,
			"target":34962
		},
		{
			"buffer":0,
			"byteLength":6528,
			"byteOffset":55948,
			"target":34962
		},
		{
			"buffer":0,
			"byteLength":4352,
			"byteOffset":62476,
			"target":34962
		},
		{
			"buffer":0,
			"byteLength":6528,
			"byteOffset":66828,
			"target":34962
		},
		{
			"buffer":0,
			"byteLength":6528,
			"byteOffset":73356,
			"target":34962
		},
		{
			"buffer":0,
			"byteLength":4352,
			"byteOffset":79884,
			"target":34962
		}
	],
	"buffers":[
		{
			"byteLength":84236,
			"uri":"data:application/octet-stream;base64,"
		}
	]
}
