{
	"asset":{
		"generator":"Khronos glTF Blender I/O v4.0.34",
		"version":"2.0"
	},
	"extensionsUsed":[
		"KHR_materials_specular",
		"KHR_materials_ior"
	],
	"scene":0,
	"scenes":[
		{
			"name":"Scene",
			"nodes":[
				0,
				1
			]
		}
	],
	"nodes":[
		{
			"mesh":0,
			"name":"Cube.001",
			"translation":[
				0.3091735243797302,
				1.7098307609558105,
				0.7564055919647217
			]
		},
		{
			"mesh":1,
			"name":"Cube",
			"translation":[
				0,
				1,
				0
			]
		}
	],
	"animations":[
		{
			"channels":[
				{
					"sampler":0,
					"target":{
						"node":0,
						"path":"translation"
					}
				},
				{
					"sampler":1,
					"target":{
						"node":0,
						"path":"rotation"
					}
				},
				{
					"sampler":2,
					"target":{
						"node":0,
						"path":"scale"
					}
				}
			],
			"name":"Cube.001Action.001",
			"samplers":[
				{
					"input":8,
					"interpolation":"LINEAR",
					"output":9
				},
				{
					"input":8,
					"interpolation":"LINEAR",
					"output":10
				},
				{
					"input":8,
					"interpolation":"LINEAR",
					"output":11
				}
			]
		}
	],
	"materials":[
		{
			"doubleSided":true,
			"extensions":{
				"KHR_materials_specular":{
					"specularFactor":0.5
				},
				"KHR_materials_ior":{
					"ior":1.4500000476837158
				}
			},
			"name":"Material.003",
			"pbrMetallicRoughness":{
				"baseColorFactor":[
					0.01202408503741026,
					0.011360729113221169,
					0.012270122766494751,
					1
				],
				"metallicFactor":0,
				"roughnessFactor":0.5
			}
		},
		{
			"doubleSided":true,
			"extensions":{
				"KHR_materials_specular":{
					"specularFactor":0.5
				},
				"KHR_materials_ior":{
					"ior":1.4500000476837158
				}
			},
			"name":"Material",
			"pbrMetallicRoughness":{
				"baseColorTexture":{
					"index":0
				},
				"metallicFactor":0,
				"roughnessFactor":0.5
			}
		}
	],
	"meshes":[
		{
			"name":"Cube.001",
			"primitives":[
				{
					"attributes":{
						"POSITION":0,
						"NORMAL":1,
						"TEXCOORD_0":2
					},
					"indices":3,
					"material":0
				}
			]
		},
		{
			"name":"Cube",
			"primitives":[
				{
					"attributes":{
						"POSITION":4,
						"NORMAL":5,
						"TEXCOORD_0":6
					},
					"indices":7,
					"material":1
				}
			]
		}
	],
	"textures":[
		{
			"sampler":0,
			"source":0
		}
	],
	"images":[
		{
			"bufferView":8,
			"mimeType":"image/jpeg",
			"name":"dark_wood_diff_1k"
		}
	],
	"accessors":[
		{
			"bufferView":0,
			"componentType":5126,
			"count":2112,
			"max":[
				0.3828808069229126,
				-0.9958769083023071,
				-0.10555440187454224
			],
			"min":[
				-1,
				-1,
				-0.9852409362792969
			],
			"type":"VEC3"
		},
		{
			"bufferView":1,
			"componentType":5126,
			"count":2112,
			"type":"VEC3"
		},
		{
			"bufferView":2,
			"componentType":5126,
			"count":2112,
			"type":"VEC2"
		},
		{
			"bufferView":3,
			"componentType":5123,
			"count":3168,
			"type":"SCALAR"
		},
		{
			"bufferView":4,
			"componentType":5126,
			"count":144,
			"max":[
				1,
				0,
				1
			],
			"min":[
				-1,
				-1,
				-1
			],
			"type":"VEC3"
		},
		{
			"bufferView":5,
			"componentType":5126,
			"count":144,
			"type":"VEC3"
		},
		{
			"bufferView":6,
			"componentType":5126,
			"count":144,
			"type":"VEC2"
		},
		{
			"bufferView":7,
			"componentType":5123,
			"count":276,
			"type":"SCALAR"
		},
		{
			"bufferView":9,
			"componentType":5126,
			"count":1,
			"max":[
				0
			],
			"min":[
				0
			],
			"type":"SCALAR"
		},
		{
			"bufferView":10,
			"componentType":5126,
			"count":1,
			"type":"VEC3"
		},
		{
			"bufferView":11,
			"componentType":5126,
			"count":1,
			"type":"VEC4"
		},
		{
			"bufferView":12,
			"componentType":5126,
			"count":1,
			"type":"VEC3"
		}
	],
	"bufferViews":[
		{
			"buffer":0,
			"byteLength":25344,
			"byteOffset":0,
			"target":34962
		},
		{
			"buffer":0,
			"byteLength":25344,
			"byteOffset":25344,
			"target":34962
		},
		{
			"buffer":0,
			"byteLength":16896,
			"byteOffset":50688,
			"target":34962
		},
		{
			"buffer":0,
			"byteLength":6336,
			"byteOffset":67584,
			"target":34963
		},
		{
			"buffer":0,
			"byteLength":1728,
			"byteOffset":73920,
			"target":34962
		},
		{
			"buffer":0,
			"byteLength":1728,
			"byteOffset":75648,
			"target":34962
		},
		{
			"buffer":0,
			"byteLength":1152,
			"byteOffset":77376,
			"target":34962
		},
		{
			"buffer":0,
			"byteLength":552,
			"byteOffset":78528,
			"target":34963
		},
		{
			"buffer":0,
			"byteLength":754754,
			"byteOffset":79080
		},
		{
			"buffer":0,
			"byteLength":4,
			"byteOffset":833836
		},
		{
			"buffer":0,
			"byteLength":12,
			"byteOffset":833840
		},
		{
			"buffer":0,
			"byteLength":16,
			"byteOffset":833852
		},
		{
			"buffer":0,
			"byteLength":12,
			"byteOffset":833868
		}
	],
	"samplers":[
		{
			"magFilter":9729,
			"minFilter":9987
		}
	],
	"buffers":[
		{
			"byteLength":833880,
			"uri":"data:application/octet-stream;base64,"
		}
	]
}
