{
	"asset":{
		"generator":"Khronos glTF Blender I/O v4.0.34",
		"version":"2.0"
	},
	"extensionsUsed":[
		"KHR_materials_specular",
		"KHR_materials_ior"
	],
	"scene":0,
	"scenes":[
		{
			"name":"Scene",
			"nodes":[
				0,
				1,
				2
			]
		}
	],
	"nodes":[
		{
			"mesh":0,
			"name":"Cylinder.001",
			"scale":[
				0.3124418258666992,
				0.3124418258666992,
				0.3124418258666992
			],
			"translation":[
				0,
				1.3270283937454224,
				-0.39692455530166626
			]
		},
		{
			"mesh":1,
			"name":"Cube.001",
			"translation":[
				0.3091735243797302,
				2.108397960662842,
				0.7564055919647217
			]
		},
		{
			"mesh":2,
			"name":"Cube",
			"translation":[
				0,
				1,
				0
			]
		}
	],
	"animations":[
		{
			"channels":[
				{
					"sampler":0,
					"target":{
						"node":1,
						"path":"translation"
					}
				},
				{
					"sampler":1,
					"target":{
						"node":1,
						"path":"rotation"
					}
				},
				{
					"sampler":2,
					"target":{
						"node":1,
						"path":"scale"
					}
				}
			],
			"name":"Cube.001Action",
			"samplers":[
				{
					"input":16,
					"interpolation":"LINEAR",
					"output":17
				},
				{
					"input":16,
					"interpolation":"LINEAR",
					"output":18
				},
				{
					"input":16,
					"interpolation":"LINEAR",
					"output":19
				}
			]
		}
	],
	"materials":[
		{
			"doubleSided":true,
			"extensions":{
				"KHR_materials_specular":{
					"specularFactor":0.5
				},
				"KHR_materials_ior":{
					"ior":1.4500000476837158
				}
			},
			"name":"Material.001",
			"pbrMetallicRoughness":{
				"baseColorFactor":[
					0.011301259510219097,
					0.011301259510219097,
					0.011301259510219097,
					1
				],
				"metallicFactor":0,
				"roughnessFactor":0.5
			}
		},
		{
			"doubleSided":true,
			"extensions":{
				"KHR_materials_specular":{
					"specularFactor":0.5
				},
				"KHR_materials_ior":{
					"ior":1.4500000476837158
				}
			},
			"name":"Material.002",
			"pbrMetallicRoughness":{
				"baseColorTexture":{
					"index":0
				},
				"metallicFactor":0,
				"roughnessFactor":0.5
			}
		},
		{
			"doubleSided":true,
			"extensions":{
				"KHR_materials_specular":{
					"specularFactor":0.5
				},
				"KHR_materials_ior":{
					"ior":1.4500000476837158
				}
			},
			"name":"Material.003",
			"pbrMetallicRoughness":{
				"baseColorFactor":[
					0.01202408503741026,
					0.011360729113221169,
					0.012270122766494751,
					1
				],
				"metallicFactor":0,
				"roughnessFactor":0.5
			}
		},
		{
			"doubleSided":true,
			"extensions":{
				"KHR_materials_specular":{
					"specularFactor":0.5
				},
				"KHR_materials_ior":{
					"ior":1.4500000476837158
				}
			},
			"name":"Material",
			"pbrMetallicRoughness":{
				"baseColorTexture":{
					"index":1
				},
				"metallicFactor":0,
				"roughnessFactor":0.5
			}
		}
	],
	"meshes":[
		{
			"name":"Cylinder.001",
			"primitives":[
				{
					"attributes":{
						"POSITION":0,
						"NORMAL":1,
						"TEXCOORD_0":2
					},
					"indices":3,
					"material":0
				},
				{
					"attributes":{
						"POSITION":4,
						"NORMAL":5,
						"TEXCOORD_0":6
					},
					"indices":7,
					"material":1
				}
			]
		},
		{
			"name":"Cube.001",
			"primitives":[
				{
					"attributes":{
						"POSITION":8,
						"NORMAL":9,
						"TEXCOORD_0":10
					},
					"indices":11,
					"material":2
				}
			]
		},
		{
			"name":"Cube",
			"primitives":[
				{
					"attributes":{
						"POSITION":12,
						"NORMAL":13,
						"TEXCOORD_0":14
					},
					"indices":15,
					"material":3
				}
			]
		}
	],
	"textures":[
		{
			"sampler":0,
			"source":0
		},
		{
			"sampler":0,
			"source":1
		}
	],
	"images":[
		{
			"bufferView":8,
			"mimeType":"image/jpeg",
			"name":"corrugated_iron_diff_1k"
		},
		{
			"bufferView":17,
			"mimeType":"image/jpeg",
			"name":"dark_wood_diff_1k"
		}
	],
	"accessors":[
		{
			"bufferView":0,
			"componentType":5126,
			"count":1836,
			"max":[
				2.4760024547576904,
				1.0511455535888672,
				1.0511480569839478
			],
			"min":[
				-2.4760024547576904,
				-1.0511455535888672,
				-1.0511480569839478
			],
			"type":"VEC3"
		},
		{
			"bufferView":1,
			"componentType":5126,
			"count":1836,
			"type":"VEC3"
		},
		{
			"bufferView":2,
			"componentType":5126,
			"count":1836,
			"type":"VEC2"
		},
		{
			"bufferView":3,
			"componentType":5123,
			"count":3192,
			"type":"SCALAR"
		},
		{
			"bufferView":4,
			"componentType":5126,
			"count":192,
			"max":[
				2.225064754486084,
				0.8637847900390625,
				0.8637901544570923
			],
			"min":[
				-2.354605197906494,
				-0.8637852668762207,
				-0.8637851476669312
			],
			"type":"VEC3"
		},
		{
			"bufferView":5,
			"componentType":5126,
			"count":192,
			"type":"VEC3"
		},
		{
			"bufferView":6,
			"componentType":5126,
			"count":192,
			"type":"VEC2"
		},
		{
			"bufferView":7,
			"componentType":5123,
			"count":372,
			"type":"SCALAR"
		},
		{
			"bufferView":9,
			"componentType":5126,
			"count":2112,
			"max":[
				0.3828808069229126,
				-0.9958769083023071,
				-0.10555440187454224
			],
			"min":[
				-1,
				-1,
				-0.9852409362792969
			],
			"type":"VEC3"
		},
		{
			"bufferView":10,
			"componentType":5126,
			"count":2112,
			"type":"VEC3"
		},
		{
			"bufferView":11,
			"componentType":5126,
			"count":2112,
			"type":"VEC2"
		},
		{
			"bufferView":12,
			"componentType":5123,
			"count":3168,
			"type":"SCALAR"
		},
		{
			"bufferView":13,
			"componentType":5126,
			"count":144,
			"max":[
				1,
				0,
				1
			],
			"min":[
				-1,
				-1,
				-1
			],
			"type":"VEC3"
		},
		{
			"bufferView":14,
			"componentType":5126,
			"count":144,
			"type":"VEC3"
		},
		{
			"bufferView":15,
			"componentType":5126,
			"count":144,
			"type":"VEC2"
		},
		{
			"bufferView":16,
			"componentType":5123,
			"count":276,
			"type":"SCALAR"
		},
		{
			"bufferView":18,
			"componentType":5126,
			"count":1,
			"max":[
				0
			],
			"min":[
				0
			],
			"type":"SCALAR"
		},
		{
			"bufferView":19,
			"componentType":5126,
			"count":1,
			"type":"VEC3"
		},
		{
			"bufferView":20,
			"componentType":5126,
			"count":1,
			"type":"VEC4"
		},
		{
			"bufferView":21,
			"componentType":5126,
			"count":1,
			"type":"VEC3"
		}
	],
	"bufferViews":[
		{
			"buffer":0,
			"byteLength":22032,
			"byteOffset":0,
			"target":34962
		},
		{
			"buffer":0,
			"byteLength":22032,
			"byteOffset":22032,
			"target":34962
		},
		{
			"buffer":0,
			"byteLength":14688,
			"byteOffset":44064,
			"target":34962
		},
		{
			"buffer":0,
			"byteLength":6384,
			"byteOffset":58752,
			"target":34963
		},
		{
			"buffer":0,
			"byteLength":2304,
			"byteOffset":65136,
			"target":34962
		},
		{
			"buffer":0,
			"byteLength":2304,
			"byteOffset":67440,
			"target":34962
		},
		{
			"buffer":0,
			"byteLength":1536,
			"byteOffset":69744,
			"target":34962
		},
		{
			"buffer":0,
			"byteLength":744,
			"byteOffset":71280,
			"target":34963
		},
		{
			"buffer":0,
			"byteLength":719557,
			"byteOffset":72024
		},
		{
			"buffer":0,
			"byteLength":25344,
			"byteOffset":791584,
			"target":34962
		},
		{
			"buffer":0,
			"byteLength":25344,
			"byteOffset":816928,
			"target":34962
		},
		{
			"buffer":0,
			"byteLength":16896,
			"byteOffset":842272,
			"target":34962
		},
		{
			"buffer":0,
			"byteLength":6336,
			"byteOffset":859168,
			"target":34963
		},
		{
			"buffer":0,
			"byteLength":1728,
			"byteOffset":865504,
			"target":34962
		},
		{
			"buffer":0,
			"byteLength":1728,
			"byteOffset":867232,
			"target":34962
		},
		{
			"buffer":0,
			"byteLength":1152,
			"byteOffset":868960,
			"target":34962
		},
		{
			"buffer":0,
			"byteLength":552,
			"byteOffset":870112,
			"target":34963
		},
		{
			"buffer":0,
			"byteLength":754754,
			"byteOffset":870664
		},
		{
			"buffer":0,
			"byteLength":4,
			"byteOffset":1625420
		},
		{
			"buffer":0,
			"byteLength":12,
			"byteOffset":1625424
		},
		{
			"buffer":0,
			"byteLength":16,
			"byteOffset":1625436
		},
		{
			"buffer":0,
			"byteLength":12,
			"byteOffset":1625452
		}
	],
	"samplers":[
		{
			"magFilter":9729,
			"minFilter":9987
		}
	],
	"buffers":[
		{
			"byteLength":1625464,
			"uri":"data:application/octet-stream;base64,"
		}
	]
}
