{
	"asset":{
		"generator":"Khronos glTF Blender I/O v4.0.34",
		"version":"2.0"
	},
	"extensionsUsed":[
		"KHR_materials_specular",
		"KHR_materials_ior"
	],
	"scene":0,
	"scenes":[
		{
			"name":"Scene",
			"nodes":[
				0
			]
		}
	],
	"nodes":[
		{
			"mesh":0,
			"name":"Cylinder.001",
			"scale":[
				0.3124418258666992,
				0.3124418258666992,
				0.3124418258666992
			]
		}
	],
	"animations":[
		{
			"channels":[
				{
					"sampler":0,
					"target":{
						"node":0,
						"path":"translation"
					}
				},
				{
					"sampler":1,
					"target":{
						"node":0,
						"path":"rotation"
					}
				},
				{
					"sampler":2,
					"target":{
						"node":0,
						"path":"scale"
					}
				}
			],
			"name":"Cylinder.001Action.001",
			"samplers":[
				{
					"input":8,
					"interpolation":"LINEAR",
					"output":9
				},
				{
					"input":8,
					"interpolation":"LINEAR",
					"output":10
				},
				{
					"input":8,
					"interpolation":"LINEAR",
					"output":11
				}
			]
		}
	],
	"materials":[
		{
			"doubleSided":true,
			"extensions":{
				"KHR_materials_specular":{
					"specularFactor":0.5
				},
				"KHR_materials_ior":{
					"ior":1.4500000476837158
				}
			},
			"name":"Material.001",
			"pbrMetallicRoughness":{
				"baseColorFactor":[
					0.011301259510219097,
					0.011301259510219097,
					0.011301259510219097,
					1
				],
				"metallicFactor":0,
				"roughnessFactor":0.5
			}
		},
		{
			"doubleSided":true,
			"extensions":{
				"KHR_materials_specular":{
					"specularFactor":0.5
				},
				"KHR_materials_ior":{
					"ior":1.4500000476837158
				}
			},
			"name":"Material.002",
			"pbrMetallicRoughness":{
				"baseColorTexture":{
					"index":0
				},
				"metallicFactor":0,
				"roughnessFactor":0.5
			}
		}
	],
	"meshes":[
		{
			"name":"Cylinder.001",
			"primitives":[
				{
					"attributes":{
						"POSITION":0,
						"NORMAL":1,
						"TEXCOORD_0":2
					},
					"indices":3,
					"material":0
				},
				{
					"attributes":{
						"POSITION":4,
						"NORMAL":5,
						"TEXCOORD_0":6
					},
					"indices":7,
					"material":1
				}
			]
		}
	],
	"textures":[
		{
			"sampler":0,
			"source":0
		}
	],
	"images":[
		{
			"bufferView":8,
			"mimeType":"image/jpeg",
			"name":"corrugated_iron_diff_1k"
		}
	],
	"accessors":[
		{
			"bufferView":0,
			"componentType":5126,
			"count":1836,
			"max":[
				2.4760024547576904,
				1.0511455535888672,
				1.0511480569839478
			],
			"min":[
				-2.4760024547576904,
				-1.0511455535888672,
				-1.0511480569839478
			],
			"type":"VEC3"
		},
		{
			"bufferView":1,
			"componentType":5126,
			"count":1836,
			"type":"VEC3"
		},
		{
			"bufferView":2,
			"componentType":5126,
			"count":1836,
			"type":"VEC2"
		},
		{
			"bufferView":3,
			"componentType":5123,
			"count":3192,
			"type":"SCALAR"
		},
		{
			"bufferView":4,
			"componentType":5126,
			"count":192,
			"max":[
				2.225064754486084,
				0.8637847900390625,
				0.8637901544570923
			],
			"min":[
				-2.354605197906494,
				-0.8637852668762207,
				-0.8637851476669312
			],
			"type":"VEC3"
		},
		{
			"bufferView":5,
			"componentType":5126,
			"count":192,
			"type":"VEC3"
		},
		{
			"bufferView":6,
			"componentType":5126,
			"count":192,
			"type":"VEC2"
		},
		{
			"bufferView":7,
			"componentType":5123,
			"count":372,
			"type":"SCALAR"
		},
		{
			"bufferView":9,
			"componentType":5126,
			"count":1,
			"max":[
				0
			],
			"min":[
				0
			],
			"type":"SCALAR"
		},
		{
			"bufferView":10,
			"componentType":5126,
			"count":1,
			"type":"VEC3"
		},
		{
			"bufferView":11,
			"componentType":5126,
			"count":1,
			"type":"VEC4"
		},
		{
			"bufferView":12,
			"componentType":5126,
			"count":1,
			"type":"VEC3"
		}
	],
	"bufferViews":[
		{
			"buffer":0,
			"byteLength":22032,
			"byteOffset":0,
			"target":34962
		},
		{
			"buffer":0,
			"byteLength":22032,
			"byteOffset":22032,
			"target":34962
		},
		{
			"buffer":0,
			"byteLength":14688,
			"byteOffset":44064,
			"target":34962
		},
		{
			"buffer":0,
			"byteLength":6384,
			"byteOffset":58752,
			"target":34963
		},
		{
			"buffer":0,
			"byteLength":2304,
			"byteOffset":65136,
			"target":34962
		},
		{
			"buffer":0,
			"byteLength":2304,
			"byteOffset":67440,
			"target":34962
		},
		{
			"buffer":0,
			"byteLength":1536,
			"byteOffset":69744,
			"target":34962
		},
		{
			"buffer":0,
			"byteLength":744,
			"byteOffset":71280,
			"target":34963
		},
		{
			"buffer":0,
			"byteLength":719557,
			"byteOffset":72024
		},
		{
			"buffer":0,
			"byteLength":4,
			"byteOffset":791584
		},
		{
			"buffer":0,
			"byteLength":12,
			"byteOffset":791588
		},
		{
			"buffer":0,
			"byteLength":16,
			"byteOffset":791600
		},
		{
			"buffer":0,
			"byteLength":12,
			"byteOffset":791616
		}
	],
	"samplers":[
		{
			"magFilter":9729,
			"minFilter":9987
		}
	],
	"buffers":[
		{
			"byteLength":791628,
			"uri":"data:application/octet-stream;base64,"
		}
	]
}
